<svg width="215" height="310" viewBox="0 0 215 310" fill="none" xmlns="http://www.w3.org/2000/svg">
<path d="M189.374 0.493866H70.5988C57.1297 0.493866 46.2108 9.83313 46.2108 21.3537V288.305C46.2108 299.826 57.1296 309.165 70.5987 309.165H189.374C202.843 309.165 213.762 299.826 213.762 288.305V21.3537C213.762 9.83313 202.843 0.493866 189.374 0.493866H189.374Z" fill="white"/>
<path d="M189.374 309.659H70.5988C56.8329 309.659 45.6332 300.08 45.6332 288.305V21.3538C45.6332 9.57937 56.8328 0 70.5988 0H189.374C203.14 0 214.339 9.57937 214.339 21.3538V288.305C214.339 300.08 203.14 309.659 189.374 309.659H189.374ZM70.5988 0.987917C57.4696 0.987917 46.7883 10.124 46.7883 21.3538V288.305C46.7883 299.535 57.4696 308.671 70.5988 308.671H189.374C202.503 308.671 213.184 299.535 213.184 288.305V21.3538C213.184 10.124 202.503 0.987917 189.374 0.987917H70.5988Z" fill="#3F3D56"/>
<path d="M36.3959 46.7119C35.3531 46.7119 34.5052 47.4372 34.5052 48.3291V61.2665C34.5052 62.1584 35.3531 62.8837 36.3959 62.8837C37.4386 62.8837 38.2866 62.1584 38.2866 61.2665V48.3291C38.2866 47.4372 37.4386 46.7119 36.3959 46.7119Z" fill="#3F3D56"/>
<path d="M197.977 43.2022H150.236C148.211 43.2022 146.564 41.7931 146.564 40.0611C146.564 38.3291 148.211 36.92 150.236 36.92H197.977C200.002 36.92 201.65 38.3291 201.65 40.0611C201.65 41.7931 200.002 43.2022 197.977 43.2022Z" fill="#E6E6E6"/>
<path d="M153.19 67.9037H106.783C105.613 67.9037 104.661 67.0895 104.661 66.0888C104.661 65.0881 105.613 64.2742 106.783 64.2742H153.19C154.36 64.2742 155.311 65.0881 155.311 66.0888C155.311 67.0895 154.36 67.9037 153.19 67.9037Z" fill="#19A0EC"/>
<path d="M38.2316 76.8607C58.931 76.8607 75.7112 62.8105 75.7112 45.4788C75.7112 28.147 58.931 14.0968 38.2316 14.0968C17.5322 14.0968 0.752075 28.147 0.752075 45.4788C0.752075 62.8105 17.5322 76.8607 38.2316 76.8607Z" fill="#19A0EC"/>
<path d="M50.9522 29.6495C45.9625 37.4208 40.9728 45.1921 35.9831 52.9634C32.803 48.1575 29.6402 43.343 26.4523 38.5408C25.3513 36.8822 22.3566 38.374 23.4603 40.0366C27.1558 45.6035 30.8131 51.1889 34.5086 56.7557C35.1405 57.7075 36.8752 57.7296 37.5006 56.7557C42.9818 48.2189 48.463 39.6821 53.9442 31.1454C55.0182 29.4726 52.0271 27.9754 50.9522 29.6495H50.9522Z" fill="white"/>
<path d="M87.5986 7.24036H61.104C61.0051 7.24036 60.9249 7.30896 60.9249 7.39359V10.0318C60.9249 10.1164 61.0051 10.185 61.104 10.185H87.5986C87.6976 10.185 87.7778 10.1164 87.7778 10.0318V7.39359C87.7778 7.30896 87.6976 7.24036 87.5986 7.24036Z" fill="#E6E6E6"/>
<path d="M176.841 10.185C178.362 10.185 179.595 9.13032 179.595 7.8293C179.595 6.52829 178.362 5.4736 176.841 5.4736C175.32 5.4736 174.087 6.52829 174.087 7.8293C174.087 9.13032 175.32 10.185 176.841 10.185Z" fill="#E6E6E6"/>
<path d="M184.415 10.185C185.936 10.185 187.169 9.13032 187.169 7.8293C187.169 6.52829 185.936 5.4736 184.415 5.4736C182.894 5.4736 181.661 6.52829 181.661 7.8293C181.661 9.13032 182.894 10.185 184.415 10.185Z" fill="#E6E6E6"/>
<path d="M191.989 10.185C193.51 10.185 194.743 9.13032 194.743 7.8293C194.743 6.52829 193.51 5.4736 191.989 5.4736C190.468 5.4736 189.235 6.52829 189.235 7.8293C189.235 9.13032 190.468 10.185 191.989 10.185Z" fill="#E6E6E6"/>
<path d="M70.3097 77.6185C70.3097 77.9446 70.6158 78.2064 70.997 78.2064H188.976C189.357 78.2064 189.663 77.9446 189.663 77.6185C189.663 77.2925 189.357 77.0307 188.976 77.0307H70.997C70.6158 77.0307 70.3097 77.2925 70.3097 77.6185Z" fill="#3F3D56"/>
<path d="M177.662 123.819H106.861C105.691 123.819 104.739 123.005 104.739 122.004C104.739 121.003 105.691 120.189 106.861 120.189H177.662C178.832 120.189 179.783 121.003 179.783 122.004C179.783 123.005 178.832 123.819 177.662 123.819Z" fill="#19A0EC"/>
<path d="M177.662 149.999H106.861C105.691 149.999 104.739 149.184 104.739 148.184C104.739 147.183 105.691 146.369 106.861 146.369H177.662C178.832 146.369 179.783 147.183 179.783 148.184C179.783 149.184 178.832 149.999 177.662 149.999Z" fill="#19A0EC"/>
<path d="M177.662 176.178H106.861C105.691 176.178 104.739 175.364 104.739 174.364C104.739 173.363 105.691 172.549 106.861 172.549H177.662C178.832 172.549 179.783 173.363 179.783 174.364C179.783 175.364 178.832 176.178 177.662 176.178Z" fill="#19A0EC"/>
<path d="M85.3866 126.225C88.2572 126.225 90.5842 124.235 90.5842 121.78C90.5842 119.325 88.2572 117.334 85.3866 117.334C82.5161 117.334 80.1891 119.325 80.1891 121.78C80.1891 124.235 82.5161 126.225 85.3866 126.225Z" fill="#19A0EC"/>
<path d="M84.8091 129.189V128.201C89.1079 128.201 92.6054 125.21 92.6054 121.533C92.6054 117.856 89.1079 114.864 84.8091 114.864V113.876C89.745 113.876 93.7604 117.311 93.7604 121.533C93.7604 125.755 89.745 129.189 84.8091 129.189Z" fill="#3F3D56"/>
<path d="M85.3866 152.405C88.2572 152.405 90.5842 150.415 90.5842 147.96C90.5842 145.504 88.2572 143.514 85.3866 143.514C82.5161 143.514 80.1891 145.504 80.1891 147.96C80.1891 150.415 82.5161 152.405 85.3866 152.405Z" fill="#19A0EC"/>
<path d="M84.8091 155.369V154.381C89.1079 154.381 92.6054 151.39 92.6054 147.713C92.6054 144.036 89.1079 141.044 84.8091 141.044V140.056C89.745 140.056 93.7604 143.491 93.7604 147.713C93.7604 151.934 89.745 155.369 84.8091 155.369Z" fill="#3F3D56"/>
<path d="M85.3866 178.585C88.2572 178.585 90.5842 176.595 90.5842 174.139C90.5842 171.684 88.2572 169.694 85.3866 169.694C82.5161 169.694 80.1891 171.684 80.1891 174.139C80.1891 176.595 82.5161 178.585 85.3866 178.585Z" fill="#19A0EC"/>
<path d="M84.8091 181.549V180.561C89.1079 180.561 92.6054 177.57 92.6054 173.892C92.6054 170.215 89.1079 167.224 84.8091 167.224V166.236C89.745 166.236 93.7604 169.671 93.7604 173.892C93.7604 178.114 89.745 181.549 84.8091 181.549Z" fill="#3F3D56"/>
</svg>
